<?xml version="1.0" encoding="utf-8"?>
<!-- Generator: Adobe Illustrator 24.3.0, SVG Export Plug-In . SVG Version: 6.00 Build 0)  -->
<svg version="1.1" id="Layer_1" xmlns="http://www.w3.org/2000/svg" xmlns:xlink="http://www.w3.org/1999/xlink" x="0px" y="0px"
	 viewBox="0 0 832.5 610.4" enable-background="new 0 0 832.5 610.4" xml:space="preserve">
<g>
	<g>
		<path fill="#FFFFFF" d="M5.3,8.5L5.1,278c0,4.4,3.6,8,8,8l65.6,0c1.6,0,3.1-0.5,4.4-1.3l85.8-57.1c1.4-1,3.2-1.4,4.9-1.3
			l499.9,29.3c1.5,0.1,3,0.6,4.2,1.5L717,285c1.4,1,3,1.5,4.6,1.5l67.4,0c4.4,0,8-3.6,8-8l0-95.8c0-3.6-1.9-5.2-5.4-6.2L15.4,0.8
			C10.3-0.6,5.3,3.2,5.3,8.5z"/>
		<path fill="none" stroke="#231F20" stroke-miterlimit="10" d="M5.3,8.5L5.1,278c0,4.4,3.6,8,8,8l65.6,0c1.6,0,3.1-0.5,4.4-1.3
			l85.8-57.1c1.4-1,3.2-1.4,4.9-1.3l499.9,29.3c1.5,0.1,3,0.6,4.2,1.5L717,285c1.4,1,3,1.5,4.6,1.5l67.4,0c4.4,0,8-3.6,8-8l0-95.8
			c0-3.6-1.9-5.2-5.4-6.2L15.4,0.8C10.3-0.6,5.3,3.2,5.3,8.5z"/>
	</g>
	<path fill-rule="evenodd" clip-rule="evenodd" fill="#7F8080" d="M123.4,153.2c-4.2,2.5-9.2,4-14.1,4c-15.1,0-27.4-12.3-27.4-27.4
		c0-15.1,12.3-27.4,27.4-27.4c4.9,0,9.9,1.5,14.1,3.9V77c-4.5-1.1-9.4-1.9-14.1-1.9c-30.2,0-54.8,24.6-54.8,54.8
		c0,30.1,24.6,54.7,54.8,54.7c4.7,0,9.6-0.9,14.1-1.9V153.2L123.4,153.2z"/>
	<polygon fill-rule="evenodd" clip-rule="evenodd" fill="#7F8080" points="123.4,127.5 146.4,127.5 166.9,107 123.4,107 
		123.4,127.5 	"/>
	<polygon fill-rule="evenodd" clip-rule="evenodd" fill="#7F8080" points="166.9,152.7 146.4,132.2 123.4,132.2 123.4,152.7 
		166.9,152.7 	"/>
</g>
<g>
	<g>
		<path fill="#FFFFFF" d="M831.9,340.6l-58.4,263.1c-1,4.3-5.2,7-9.5,6.1l-64-14.2c-1.5-0.3-2.9-1.1-4-2.3l-71.3-74.4
			c-1.2-1.3-2.8-2.1-4.5-2.4l-494.3-80.1c-1.5-0.2-3-0.1-4.4,0.5L77,455.7c-1.5,0.7-3.2,0.8-4.9,0.4L6.3,441.5
			c-1.7-0.4-3-1.3-3.9-2.3c-1.7-1.9-2.3-4.5-1.7-7l20.8-93.5c0.8-5.7,6.6-5.1,10.2-5.3l791.9-2.6C828.9,330.6,833,335.4,831.9,340.6
			z"/>
		<path fill="none" stroke="#231F20" stroke-miterlimit="10" d="M831.9,340.6l-58.4,263.1c-1,4.3-5.2,7-9.5,6.1l-64-14.2
			c-1.5-0.3-2.9-1.1-4-2.3l-71.3-74.4c-1.2-1.3-2.8-2.1-4.5-2.4l-494.3-80.1c-1.5-0.2-3-0.1-4.4,0.5L77,455.7
			c-1.5,0.7-3.2,0.8-4.9,0.4L6.3,441.5c-1.7-0.4-3-1.3-3.9-2.3c-1.7-1.9-2.3-4.5-1.7-7l20.8-93.5c0.8-5.7,6.6-5.1,10.2-5.3
			l791.9-2.6C828.9,330.6,833,335.4,831.9,340.6z"/>
	</g>
	<path fill-rule="evenodd" clip-rule="evenodd" fill="#7F8080" d="M716.2,467.5c-4.6,1.5-9.8,1.9-14.6,0.8
		c-14.7-3.3-24-18-20.8-32.7c3.3-14.7,18-24,32.7-20.8c4.8,1.1,9.4,3.6,12.9,6.9l6.4-28.7c-4.2-2-8.8-3.9-13.3-4.9
		c-29.4-6.6-58.8,12.1-65.3,41.5c-6.6,29.4,12.1,58.8,41.5,65.3c4.6,1,9.6,1.2,14.2,1.2L716.2,467.5L716.2,467.5z"/>
	<polygon fill-rule="evenodd" clip-rule="evenodd" fill="#7F8080" points="721.8,442.4 744.3,447.4 768.8,431.9 726.3,422.4 
		721.8,442.4 	"/>
	<polygon fill-rule="evenodd" clip-rule="evenodd" fill="#7F8080" points="758.8,476.4 743.3,452 720.8,447 716.4,467 758.8,476.4 	
		"/>
</g>
</svg>
